<?xml version="1.0" encoding="utf-8"?>
<!-- Generator: Adobe Illustrator 22.0.1, SVG Export Plug-In . SVG Version: 6.00 Build 0)  -->
<svg version="1.1" id="Layer_1" xmlns="http://www.w3.org/2000/svg" xmlns:xlink="http://www.w3.org/1999/xlink" x="0px" y="0px"
	 width="18px" height="18px" viewBox="0 0 18 18" style="enable-background:new 0 0 18 18;" xml:space="preserve">
<style type="text/css">
	.st0{fill:#E92326;}
</style>
<path class="st0" d="M17.4,15.8L14,12.5c0,0,0,0,0,0c1-1.3,1.5-2.8,1.5-4.5c0-4.2-3.4-7.6-7.6-7.6S0.3,3.7,0.3,7.9
	c0,4.2,3.4,7.6,7.6,7.6c1.7,0,3.3-0.6,4.5-1.5c0,0,0,0,0,0l3.4,3.4c0.2,0.2,0.5,0.3,0.8,0.3c0.3,0,0.6-0.1,0.8-0.3
	C17.8,16.9,17.8,16.2,17.4,15.8z M7.9,13.3c-3,0-5.4-2.4-5.4-5.4s2.4-5.4,5.4-5.4c3,0,5.4,2.4,5.4,5.4S10.9,13.3,7.9,13.3z"/>
</svg>
